<svg width="66" height="56" viewBox="0 0 66 56" fill="none" xmlns="http://www.w3.org/2000/svg">
<path d="M24.6299 13.3333H13.6673C9.93363 13.3333 8.0654 13.3333 6.63932 14.06C5.38491 14.6991 4.36578 15.7183 3.72662 16.9727C3 18.3987 3 20.267 3 24.0007V42.6673C3 46.401 3 48.2652 3.72662 49.6913C4.36578 50.9457 5.38491 51.9683 6.63932 52.6074C8.06401 53.3333 9.92998 53.3333 13.6564 53.3333H52.3436C56.07 53.3333 57.9333 53.3333 59.358 52.6074C60.6124 51.9683 61.6349 50.9457 62.2741 49.6913C63 48.2666 63 46.4034 63 42.677V23.9897C63 20.2633 63 18.3973 62.2741 16.9727C61.6349 15.7183 60.6124 14.6991 59.358 14.06C57.9319 13.3333 56.0677 13.3333 52.334 13.3333H41.3694M24.6299 13.3333H24.8359M24.6299 13.3333C24.6717 13.3334 24.7156 13.3334 24.7619 13.3333L24.8359 13.3333M24.6299 13.3333C24.2762 13.3332 24.078 13.3314 23.9212 13.3138C21.9626 13.0945 20.6193 11.2303 21.0306 9.30281C21.0689 9.12344 21.1445 8.89649 21.2943 8.44707L21.3008 8.42806C21.4719 7.91477 21.5574 7.65812 21.6519 7.43165C22.6195 5.11297 24.8107 3.53611 27.3164 3.35139C27.5611 3.33334 27.83 3.33334 28.3711 3.33334H37.6286C38.1697 3.33334 38.4408 3.33334 38.6855 3.35139C41.1912 3.53611 43.3801 5.11297 44.3477 7.43165C44.4422 7.65812 44.5281 7.91448 44.6992 8.42774C44.8533 8.88998 44.9304 9.1212 44.9692 9.30312C45.3805 11.2306 44.0393 13.0945 42.0807 13.3138C41.924 13.3314 41.7238 13.3332 41.3694 13.3333M24.8359 13.3333H41.1632M41.1632 13.3333H41.3694M41.1632 13.3333L41.2373 13.3333C41.2836 13.3334 41.3276 13.3334 41.3694 13.3333M33 43.3333C27.4772 43.3333 23 38.8562 23 33.3333C23 27.8105 27.4772 23.3333 33 23.3333C38.5228 23.3333 43 27.8105 43 33.3333C43 38.8562 38.5228 43.3333 33 43.3333Z" stroke="white" stroke-width="5" stroke-linecap="round" stroke-linejoin="round"/>
</svg>
