<svg width="66" height="60" viewBox="0 0 66 60" fill="none" xmlns="http://www.w3.org/2000/svg">
<path d="M3 10V46C3 49.7337 3 51.5992 3.72662 53.0253C4.36578 54.2797 5.38491 55.3016 6.63932 55.9408C8.064 56.6667 9.92998 56.6667 13.6564 56.6667H52.3436C56.07 56.6667 57.9333 56.6667 59.358 55.9408C60.6124 55.3016 61.6349 54.2804 62.2741 53.026C63.0007 51.5999 63.0007 49.733 63.0007 45.9994L63.0007 20.6659C63.0007 16.9323 63.0007 15.0654 62.2741 13.6393C61.6349 12.3849 60.613 11.3658 59.3586 10.7266C57.9325 10 56.067 10 52.3333 10H33M3 10H33M3 10C3 6.31811 5.98477 3.33334 9.66667 3.33334H21.9151C23.5457 3.33334 24.3629 3.33334 25.1301 3.51754C25.8104 3.68086 26.4595 3.95089 27.056 4.31642C27.7286 4.72856 28.306 5.30606 29.4583 6.45834L33 10" stroke="white" stroke-width="5" stroke-linecap="round" stroke-linejoin="round"/>
</svg>
